{"title":"Hong Kong Phooey Volume 1 (2012) DVDRip XviD AC3 peaSoup","uid":9113197,"size":797353984,"categoryP":"video","categoryS":"other","magnet":"?xt=urn:btih:afd671dadea03aaee06055192584fd69a41d8783&amp;dn=Hong+Kong+Phooey+Volume+1+%282012%29+DVDRip+XviD+AC3+peaSoup&amp;tr=udp%3A%2F%2Ftracker.openbittorrent.com%3A80&amp;tr=udp%3A%2F%2Fopen.demonii.com%3A1337&amp;tr=udp%3A%2F%2Ftracker.coppersurfer.tk%3A6969&amp;tr=udp%3A%2F%2Fexodus.desync.com%3A6969","seeders":1,"leechers":0,"uploader":"peaSoup","files":-1,"time":1382987038,"description":"Collection of episodes from the Hanna-Barbera Productions animated series following the police station janitor whose alter ego's attempts at fighting crime often fail. The episodes are: 'Car Thieves', 'Zoo Story', 'Iron Head the Robot', 'Cotton Pickin' Pocket Picker', 'Grandma Goody (Cat Burglar)', 'Candle Power', 'The Penthouse Bulgaries', 'Batty Bank Mob', 'The Voltage Villain', 'The Giggler', 'The Gumdrop Kid', 'Professor Presto (The Malevolent Magician)', 'TV Or Not TV', 'Stop Horsing Around', 'Mirror, Mirror On the Wall' and 'Great Movie Mystery'.                    &lt;a href=&quot; http://imageshack.us/a/img209/1162/gdmu.jpg&quot; rel=&quot;nofollow&quot; target=&quot;_NEW&quot;&gt; http://imageshack.us/a/img209/1162/gdmu.jpg&lt;/a&gt;                                         &lt;a href=&quot; http://imageshack.us/a/img547/3449/zhsl.jpg&quot; rel=&quot;nofollow&quot; target=&quot;_NEW&quot;&gt; http://imageshack.us/a/img547/3449/zhsl.jpg&lt;/a&gt;                                         &lt;a href=&quot; http://imageshack.us/a/img513/7633/qu85.jpg&quot; rel=&quot;nofollow&quot; target=&quot;_NEW&quot;&gt; http://imageshack.us/a/img513/7633/qu85.jpg&lt;/a&gt;                                         &lt;a href=&quot; http://imageshack.us/a/img29/1926/j09z.jpg&quot; rel=&quot;nofollow&quot; target=&quot;_NEW&quot;&gt; http://imageshack.us/a/img29/1926/j09z.jpg&lt;/a&gt;                                           Format                                   : AVI\nFormat/Info                              : Audio Video Interleave\nFile size                                : 760 MiB\nDuration                                 : 2h 49mn\nOverall bit rate                         : 625 Kbps\nWriting application                      : VirtualDubMod 1.5.4.1 (build 2178/release)\nWriting library                          : VirtualDubMod build 2178/release\n\nVideo\nID                                       : 0\nFormat                                   : MPEG-4 Visual\nFormat profile                           : Advanced Simple@L5\nFormat settings, BVOP                    : 1\nFormat settings, QPel                    : No\nFormat settings, GMC                     : No warppoints\nFormat settings, Matrix                  : Custom\nCodec ID                                 : XVID\nCodec ID/Hint                            : XviD\nDuration                                 : 2h 49mn\nBit rate                                 : 427 Kbps\nWidth                                    : 720 pixels\nHeight                                   : 544 pixels\nDisplay aspect ratio                     : 4:3\nFrame rate                               : 25.000 fps\nColor space                              : YUV\nChroma subsampling                       : 4:2:0\nBit depth                                : 8 bits\nScan type                                : Progressive\nCompression mode                         : Lossy\nBits/(Pixel*Frame)                       : 0.044\nStream size                              : 519 MiB (68%)\nWriting library                          : XviD 1.2.1 (UTC 2008-12-04)\n\nAudio\nID                                       : 1\nFormat                                   : AC-3\nFormat/Info                              : Audio Coding 3\nFormat profile                           : Dolby Digital\nMode extension                           : CM (complete main)\nFormat settings, Endianness              : Big\nCodec ID                                 : 2000\nDuration                                 : 2h 49mn\nBit rate mode                            : Constant\nBit rate                                 : 192 Kbps\nChannel(s)                               : 2 channels\nChannel positions                        : Front: L R\nSampling rate                            : 48.0 KHz\nBit depth                                : 16 bits\nCompression mode                         : Lossy\nStream size                              : 233 MiB (31%)\nAlignment                                : Split accross interleaves\nInterleave, duration                     : 96 ms (2.40 video frames)\nInterleave, preload duration             : 96 ms\nLanguage                                 : English\n\n","torrent":{"xt":"urn:btih:afd671dadea03aaee06055192584fd69a41d8783","amp;dn":"Hong+Kong+Phooey+Volume+1+%282012%29+DVDRip+XviD+AC3+peaSoup","amp;tr":["udp%3A%2F%2Ftracker.openbittorrent.com%3A80","udp%3A%2F%2Fopen.demonii.com%3A1337","udp%3A%2F%2Ftracker.coppersurfer.tk%3A6969","udp%3A%2F%2Fexodus.desync.com%3A6969"],"infoHash":"afd671dadea03aaee06055192584fd69a41d8783","infoHashBuffer":{"type":"Buffer","data":[175,214,113,218,222,160,58,174,224,96,85,25,37,132,253,105,164,29,135,131]},"announce":[],"urlList":[]}}